<svg xmlns="http://www.w3.org/2000/svg" viewBox="0 0 64 64">
  <defs>
    <linearGradient id="bg" x1="0%" y1="0%" x2="100%" y2="100%">
      <stop offset="0%" stop-color="#1a3a2a"/>
      <stop offset="100%" stop-color="#2d6b40"/>
    </linearGradient>
    <linearGradient id="leaf" x1="0%" y1="0%" x2="100%" y2="100%">
      <stop offset="0%" stop-color="#4ade80"/>
      <stop offset="100%" stop-color="#22c55e"/>
    </linearGradient>
  </defs>
  <!-- Circle background -->
  <circle cx="32" cy="32" r="30" fill="url(#bg)"/>
  <!-- Oak tree silhouette -->
  <!-- Trunk -->
  <rect x="29" y="32" width="6" height="18" rx="2" fill="#0f172a"/>
  <!-- Roots -->
  <path d="M29 48 Q22 52 18 50 M35 48 Q42 52 46 50" stroke="#0f172a" stroke-width="2.5" fill="none" stroke-linecap="round"/>
  <!-- Canopy - oak leaf shape -->
  <path d="M22 34 
           Q18 28 20 22 
           Q16 18 20 14 
           Q22 8 28 10 
           Q30 6 34 8 
           Q36 4 42 8 
           Q44 6 48 12 
           Q50 10 50 18 
           Q52 22 48 28 
           Q50 32 44 34 
           Z" fill="url(#leaf)"/>
  <!-- Branch details -->
  <path d="M32 20 L34 14 M36 24 L42 18 M28 24 L22 18" stroke="#166534" stroke-width="1.5" fill="none" stroke-linecap="round"/>
  <!-- Light accent -->
  <circle cx="26" cy="16" r="1.5" fill="#86efac" opacity="0.6"/>
</svg>